<?xml version="1.0" encoding="UTF-8"?>
<svg id="Capa_1" xmlns="http://www.w3.org/2000/svg" version="1.1" viewBox="0 0 962.31 171.59">
  <!-- Generator: Adobe Illustrator 30.5.1, SVG Export Plug-In . SVG Version: 2.1.4 Build 3)  -->
  <defs>
    <style>
      .st0 {
        fill: #731423;
      }

      .st1 {
        fill: #fff;
      }
    </style>
  </defs>
  <g>
    <g>
      <path class="st0" d="M303.12,159.12l.22-1.13.92-.38c1.29-.5,2.07-1.46,2.32-2.86l2.81-14.58c.4-1.98.77-4.02,1.13-6.13.36-2.11.72-4.17,1.08-6.18.25-1.51-.34-2.54-1.78-3.08l-.54-.22.27-1.13h12.85c2.81,0,5.04.38,6.7,1.13,1.65.76,2.85,1.74,3.59,2.94.74,1.21,1.11,2.53,1.11,3.97,0,2.05-.89,3.91-2.67,5.59s-4.44,2.73-7.96,3.16c3.53.47,6.09,1.55,7.69,3.24,1.6,1.69,2.4,3.6,2.4,5.72,0,1.76-.54,3.4-1.62,4.91s-2.75,2.73-5.02,3.64-5.22,1.38-8.85,1.38h-14.63ZM313.27,157.56h3.35c3.2,0,5.59-.86,7.15-2.59s2.35-3.96,2.35-6.7c0-4.79-2.41-7.18-7.24-7.18h-2.7l-.27,1.3c-.43,2.52-.88,5.04-1.35,7.56-.47,2.52-.9,5.06-1.3,7.61ZM316.45,139.58h2.05c2.77,0,4.86-.71,6.26-2.13,1.4-1.42,2.11-3.41,2.11-5.97,0-2.05-.5-3.64-1.49-4.78s-2.44-1.7-4.35-1.7h-1.84l-2.75,14.58Z"/>
      <path class="st0" d="M332.17,171.59c-1.22,0-2.26-.32-3.1-.97-.85-.65-1.27-1.53-1.27-2.65,0-.94.32-1.7.97-2.29.65-.59,1.46-.89,2.43-.89.54,0,1.06.09,1.57.27.5.18,1.03.49,1.56.92.72.61,1.42.99,2.11,1.13.68.14,1.4-.07,2.16-.65.5-.4.99-.81,1.46-1.24.47-.43.95-.9,1.46-1.4.22-.22.43-.45.65-.7-.47-3.71-.96-7.25-1.48-10.64-.52-3.38-1.07-6.96-1.65-10.74-.18-1.44-.35-2.5-.51-3.19-.16-.68-.35-1.13-.57-1.35-.22-.22-.47-.32-.76-.32-.36,0-.76.16-1.19.49-.43.32-.94.9-1.51,1.73l-.81-.86c2.38-3.89,4.86-5.83,7.45-5.83,1.33,0,2.29.45,2.89,1.35.59.9.98,2.34,1.16,4.32.36,3.42.68,6.64.97,9.66.29,3.02.58,6.14.86,9.34,1.3-2.99,2.4-5.94,3.32-8.85.92-2.92,1.81-6.16,2.67-9.72.58-2.45,1.21-4.1,1.92-4.97.7-.86,1.61-1.3,2.73-1.3.76,0,1.43.23,2.03.7s.89,1.12.89,1.94-.16,1.67-.49,2.43c-.32.76-.79,1.71-1.4,2.86-.58,1.08-1.21,2.23-1.89,3.46s-1.49,2.61-2.43,4.16c-1.01,1.62-2.08,3.37-3.21,5.24-1.13,1.87-2.46,3.87-3.97,5.99-.79,1.12-1.65,2.27-2.56,3.46-.92,1.19-2.04,2.48-3.37,3.89-1.51,1.58-3.02,2.85-4.51,3.81-1.49.95-3.01,1.43-4.56,1.43Z"/>
      <path class="st0" d="M365.96,159.12l.22-1.13.76-.27c1.44-.54,2.29-1.51,2.54-2.92l2.75-14.63c.36-1.91.73-3.95,1.11-6.13.38-2.18.75-4.27,1.11-6.29.22-1.44-.34-2.41-1.67-2.92l-.65-.27.27-1.13h12.36c3.6,0,6.63.64,9.1,1.92,2.46,1.28,4.33,3.05,5.59,5.32,1.26,2.27,1.89,4.86,1.89,7.77,0,3.28-.58,6.19-1.73,8.75-1.15,2.56-2.73,4.72-4.72,6.51-2,1.78-4.3,3.13-6.91,4.05-2.61.92-5.37,1.38-8.29,1.38h-13.71ZM376.06,157.56h3.19c3.1,0,5.73-.87,7.91-2.62,2.18-1.75,3.84-4.09,4.99-7.05,1.15-2.95,1.73-6.24,1.73-9.88,0-4.28-.86-7.49-2.59-9.61-1.73-2.12-4.23-3.26-7.51-3.4h-1.73l-3.29,17.38c-.47,2.52-.94,5.04-1.4,7.56-.47,2.52-.9,5.06-1.3,7.61Z"/>
      <path class="st0" d="M410.61,159.88c-2.66,0-4.83-.86-6.51-2.59s-2.51-4.23-2.51-7.5c0-2.27.4-4.44,1.19-6.53.79-2.09,1.88-3.95,3.27-5.59,1.39-1.64,3.01-2.92,4.89-3.86,1.87-.94,3.89-1.4,6.05-1.4s3.93.5,5.1,1.51,1.76,2.36,1.76,4.05c0,2.05-1.36,4.08-4.08,6.07-2.72,2-6.65,3.56-11.8,4.67.11,2.34.67,4.05,1.67,5.13,1.01,1.08,2.39,1.62,4.16,1.62,1.58,0,3-.41,4.27-1.24,1.26-.83,2.32-1.8,3.19-2.92l.81.59c-.72,1.37-1.65,2.66-2.78,3.89-1.13,1.22-2.42,2.21-3.86,2.97s-3.04,1.13-4.8,1.13ZM416.44,134.23c-.83,0-1.71.35-2.65,1.05-.94.7-1.83,1.66-2.67,2.86-.85,1.21-1.56,2.59-2.13,4.16-.58,1.57-.92,3.23-1.03,4.99,4.03-1.19,6.87-2.66,8.5-4.43,1.64-1.76,2.46-3.64,2.46-5.62,0-1.04-.23-1.81-.7-2.29-.47-.49-1.06-.73-1.78-.73Z"/>
      <path class="st0" d="M426.97,159.88c-1.08,0-1.97-.28-2.67-.84s-1.05-1.38-1.05-2.46c0-.61.07-1.35.22-2.21.14-.86.31-1.75.49-2.65l2.54-12.2c.32-1.51-.23-2.54-1.67-3.08l-.76-.32.11-.97,9.72-2.81.54.54-4.1,19.28c-.14.61-.25,1.14-.32,1.59-.07.45-.11.87-.11,1.27,0,.79.36,1.19,1.08,1.19.86,0,2-.68,3.4-2.05l.7.7c-.9,1.33-2.02,2.5-3.37,3.51-1.35,1.01-2.93,1.51-4.72,1.51ZM431.94,129.21c-1.01,0-1.87-.32-2.59-.97-.72-.65-1.08-1.53-1.08-2.65,0-1.19.43-2.18,1.3-2.97.86-.79,1.84-1.19,2.92-1.19s1.91.33,2.59,1c.68.67,1.03,1.52,1.03,2.57,0,1.15-.42,2.14-1.27,2.97-.85.83-1.81,1.24-2.89,1.24Z"/>
      <path class="st0" d="M442.31,159.55l-.49-.38c-.32-3.92-.66-7.56-1-10.91s-.67-6.6-1-9.77c-.11-.9-.28-1.47-.51-1.7s-.53-.35-.89-.35c-.65,0-1.51.63-2.59,1.89l-.76-.86c2.34-3.38,4.68-5.08,7.02-5.08,2.52,0,3.9,1.64,4.16,4.91.25,2.56.49,5.3.7,8.23.21,2.93.43,6.02.65,9.26,1.37-1.66,2.65-3.27,3.83-4.86,1.19-1.58,2.38-3.31,3.56-5.18.54-.9.84-1.75.92-2.57.07-.81-.05-1.7-.38-2.67l-.81-2.11c-.47-1.37-.39-2.57.24-3.59.63-1.03,1.56-1.54,2.78-1.54s2.03.34,2.54,1.03c.5.68.76,1.55.76,2.59,0,.68-.16,1.51-.49,2.48s-1.01,2.34-2.05,4.1c-1.44,2.52-3.28,5.25-5.51,8.18-2.23,2.93-4.73,5.79-7.5,8.56l-3.19.32Z"/>
      <path class="st0" d="M465.31,159.88c-2.23,0-4.03-.44-5.4-1.32-1.37-.88-2.05-2.11-2.05-3.7,0-.86.29-1.61.86-2.24.58-.63,1.33-.95,2.27-.95,1.76,0,2.86,1.06,3.29,3.19l.27,1.24c.14.79.37,1.4.67,1.81.31.41.84.62,1.59.62.94,0,1.75-.37,2.46-1.11.7-.74,1.05-1.77,1.05-3.1,0-.97-.3-1.91-.89-2.81s-1.63-1.91-3.1-3.02c-1.44-1.15-2.61-2.34-3.51-3.56-.9-1.22-1.35-2.7-1.35-4.43,0-1.48.39-2.83,1.16-4.05.77-1.22,1.88-2.2,3.32-2.94,1.44-.74,3.15-1.11,5.13-1.11,2.34,0,4.17.47,5.48,1.4,1.31.94,1.97,2.11,1.97,3.51,0,.79-.24,1.44-.73,1.94-.49.5-1.18.76-2.08.76-1.62,0-2.75-1.01-3.4-3.02l-.38-1.3c-.18-.68-.42-1.16-.7-1.43-.29-.27-.68-.4-1.19-.4-.68,0-1.33.32-1.94.97-.61.65-.92,1.62-.92,2.92s.37,2.4,1.11,3.43c.74,1.03,1.86,2.12,3.37,3.27,1.62,1.19,2.79,2.33,3.51,3.43.72,1.1,1.08,2.44,1.08,4.02,0,2.2-.95,4.08-2.86,5.64s-4.61,2.35-8.1,2.35Z"/>
    </g>
    <g>
      <path class="st1" d="M304.76,96.33v-1.69l1.69-.48c1.08-.32,1.76-.79,2.06-1.41.29-.62.44-1.49.44-2.62.05-3.12.08-6.23.08-9.35v-22.09c0-3.12-.03-6.24-.08-9.35,0-1.13-.13-2-.4-2.62-.27-.62-.94-1.09-2.02-1.41l-1.77-.56v-1.69h22.58c6.29,0,11.14,1.2,14.55,3.59,3.41,2.39,5.12,5.74,5.12,10.04,0,2.37-.93,4.76-2.78,7.18s-4.69,4.27-8.51,5.56l10.97,21.37c.91,1.77,2.34,2.98,4.27,3.63l1.53.32v1.61h-14.27l-12.01-25.16h-5.81v10.32c0,3.06.03,5.94.08,8.63,0,1.08.17,1.94.52,2.58.35.65,1.03,1.1,2.06,1.37l1.93.56v1.69h-20.24ZM320.4,68.83h4.35c3.82,0,6.61-.97,8.39-2.9,1.77-1.93,2.66-4.89,2.66-8.87s-.85-6.92-2.54-8.83-4.42-2.86-8.18-2.86h-4.6c0,2.1-.01,4.23-.04,6.41-.03,2.18-.04,4.62-.04,7.34v9.72Z"/>
      <path class="st1" d="M386.76,97.7c-3.28,0-6.42-.59-9.43-1.77-3.01-1.18-5.71-2.94-8.1-5.28-2.39-2.34-4.29-5.25-5.68-8.75-1.4-3.49-2.1-7.58-2.1-12.26s.7-8.6,2.1-12.09c1.4-3.49,3.29-6.42,5.68-8.79,2.39-2.36,5.11-4.15,8.14-5.36,3.04-1.21,6.17-1.81,9.39-1.81s6.36.59,9.39,1.77c3.04,1.18,5.74,2.94,8.1,5.28,2.36,2.34,4.25,5.25,5.64,8.75,1.4,3.5,2.1,7.58,2.1,12.26s-.7,8.6-2.1,12.09c-1.4,3.5-3.28,6.42-5.64,8.79-2.37,2.37-5.05,4.15-8.06,5.36-3.01,1.21-6.16,1.81-9.43,1.81ZM386.76,95.28c3.06,0,5.54-.79,7.42-2.38,1.88-1.58,3.25-4.26,4.11-8.02.86-3.76,1.29-8.84,1.29-15.24s-.43-11.46-1.29-15.2c-.86-3.74-2.23-6.4-4.11-7.98-1.88-1.58-4.35-2.38-7.42-2.38s-5.47.79-7.38,2.38c-1.91,1.59-3.29,4.25-4.15,7.98-.86,3.74-1.29,8.8-1.29,15.2s.43,11.48,1.29,15.24c.86,3.76,2.24,6.44,4.15,8.02,1.91,1.59,4.37,2.38,7.38,2.38Z"/>
      <path class="st1" d="M449.97,97.7c-3.28,0-6.42-.59-9.43-1.77-3.01-1.18-5.71-2.94-8.1-5.28-2.39-2.34-4.29-5.25-5.69-8.75-1.4-3.49-2.1-7.58-2.1-12.26s.7-8.6,2.1-12.09c1.4-3.49,3.29-6.42,5.69-8.79,2.39-2.36,5.11-4.15,8.14-5.36,3.04-1.21,6.17-1.81,9.39-1.81s6.36.59,9.39,1.77c3.04,1.18,5.74,2.94,8.1,5.28,2.36,2.34,4.25,5.25,5.64,8.75,1.4,3.5,2.1,7.58,2.1,12.26s-.7,8.6-2.1,12.09c-1.4,3.5-3.28,6.42-5.64,8.79s-5.05,4.15-8.06,5.36c-3.01,1.21-6.16,1.81-9.43,1.81ZM449.97,95.28c3.06,0,5.54-.79,7.42-2.38,1.88-1.58,3.25-4.26,4.11-8.02.86-3.76,1.29-8.84,1.29-15.24s-.43-11.46-1.29-15.2c-.86-3.74-2.23-6.4-4.11-7.98-1.88-1.58-4.35-2.38-7.42-2.38s-5.47.79-7.38,2.38c-1.91,1.59-3.29,4.25-4.15,7.98-.86,3.74-1.29,8.8-1.29,15.2s.43,11.48,1.29,15.24c.86,3.76,2.24,6.44,4.15,8.02,1.91,1.59,4.37,2.38,7.38,2.38Z"/>
      <path class="st1" d="M485.05,96.33v-1.77l1.61-.48c1.02-.32,1.72-.85,2.1-1.57.38-.73.56-1.68.56-2.86v-39.91c0-1.07-.13-1.95-.4-2.62-.27-.67-.94-1.2-2.02-1.57l-1.85-.73v-1.77h15.4l15.16,39.43,14.27-39.43h15.72v1.77l-1.29.4c-1.02.32-1.72.82-2.1,1.49-.38.67-.56,1.55-.56,2.62-.05,3.12-.08,6.22-.08,9.31v22.05c0,3.12.03,6.21.08,9.27,0,1.13.13,1.99.4,2.58.27.59.91,1.08,1.93,1.45l1.61.56v1.77h-19.59v-1.77l1.77-.56c1.02-.38,1.65-.87,1.9-1.49.24-.62.36-1.46.36-2.54v-17.5l.16-21.61-16.45,45.48h-4.52l-17.34-44.99.32,18.38v20c0,1.18.16,2.12.48,2.82.32.7.99,1.18,2.02,1.45l1.61.56v1.77h-11.29Z"/>
      <path class="st1" d="M574.55,97.7c-2.96,0-5.95-.36-8.99-1.09-3.04-.73-5.58-1.68-7.62-2.86l.48-11.21h2.34l2.5,5.56c.75,1.56,1.53,2.85,2.34,3.87.81,1.02,1.88,1.8,3.23,2.34.91.38,1.79.63,2.62.77.83.13,1.76.2,2.78.2,3.28,0,5.87-.85,7.78-2.54s2.86-3.94,2.86-6.73c0-2.53-.66-4.51-1.97-5.97-1.32-1.45-3.43-2.85-6.33-4.19l-3.31-1.45c-4.52-1.99-8.08-4.3-10.68-6.93-2.61-2.63-3.91-6.13-3.91-10.48,0-3.22.82-5.98,2.46-8.26,1.64-2.28,3.91-4.04,6.81-5.28,2.9-1.24,6.29-1.85,10.16-1.85,2.85,0,5.52.38,8.02,1.13,2.5.75,4.69,1.77,6.57,3.06l-.56,10h-2.34l-2.98-6.05c-.86-1.77-1.68-3.05-2.46-3.83-.78-.78-1.73-1.28-2.86-1.49-.65-.11-1.2-.19-1.65-.24-.46-.05-1.06-.08-1.81-.08-2.63,0-4.91.77-6.81,2.3-1.91,1.53-2.86,3.64-2.86,6.33s.73,4.68,2.18,6.29c1.45,1.61,3.55,3.04,6.29,4.27l3.63,1.53c5.21,2.26,8.95,4.66,11.21,7.22,2.26,2.55,3.39,5.82,3.39,9.8,0,4.73-1.79,8.56-5.36,11.49-3.58,2.93-8.62,4.39-15.12,4.39Z"/>
      <path class="st1" d="M632.93,96.33v-1.77l1.61-.48c1.02-.32,1.72-.85,2.1-1.57.38-.73.56-1.68.56-2.86v-39.91c0-1.07-.13-1.95-.4-2.62-.27-.67-.94-1.2-2.02-1.57l-1.85-.73v-1.77h15.4l15.16,39.43,14.27-39.43h15.72v1.77l-1.29.4c-1.02.32-1.72.82-2.1,1.49-.38.67-.56,1.55-.56,2.62-.05,3.12-.08,6.22-.08,9.31v22.05c0,3.12.03,6.21.08,9.27,0,1.13.13,1.99.4,2.58.27.59.91,1.08,1.93,1.45l1.61.56v1.77h-19.59v-1.77l1.77-.56c1.02-.38,1.65-.87,1.9-1.49.24-.62.36-1.46.36-2.54v-17.5l.16-21.61-16.45,45.48h-4.52l-17.34-44.99.32,18.38v20c0,1.18.16,2.12.48,2.82.32.7.99,1.18,2.02,1.45l1.61.56v1.77h-11.29Z"/>
      <path class="st1" d="M703.96,96.33v-1.69l2.18-.64c1.13-.32,2-.81,2.62-1.45.62-.64,1.11-1.53,1.49-2.66l16.29-47.09h6.69l16.21,47.41c.43,1.18.91,2.08,1.45,2.7.54.62,1.4,1.12,2.58,1.49l1.21.32v1.61h-20.48v-1.61l1.37-.4c1.18-.38,1.9-.97,2.14-1.77.24-.81.17-1.8-.2-2.98l-3.39-10.4h-17.82l-3.47,10.24c-.38,1.18-.48,2.15-.32,2.9s.83,1.34,2.02,1.77l1.77.56v1.69h-12.34ZM717.11,76.82h16.29l-7.9-24.27-8.39,24.27Z"/>
      <path class="st1" d="M765.24,96.33v-1.69l1.61-.56c1.72-.54,2.58-1.88,2.58-4.03.05-3.06.08-6.2.08-9.39v-21.97c0-3.12-.03-6.24-.08-9.35,0-2.2-.83-3.57-2.5-4.11l-1.69-.48v-1.69h21.21c5.64,0,10.51,1.05,14.59,3.14,4.08,2.1,7.23,5.12,9.43,9.07s3.31,8.72,3.31,14.31-1.2,10.54-3.59,14.51c-2.39,3.98-5.75,7.01-10.08,9.11s-9.37,3.14-15.12,3.14h-19.75ZM781.13,93.99h4.11c3.82,0,6.92-.75,9.31-2.26,2.39-1.5,4.15-4.04,5.28-7.62,1.13-3.57,1.69-8.4,1.69-14.47s-.56-10.88-1.69-14.43-2.86-6.07-5.2-7.58c-2.34-1.5-5.36-2.26-9.07-2.26h-4.43c-.05,3.71-.08,7.46-.08,11.25v25.96c0,3.84.03,7.65.08,11.41Z"/>
      <path class="st1" d="M823.38,96.33v-1.69l1.69-.48c1.07-.32,1.76-.79,2.06-1.41.29-.62.44-1.49.44-2.62.05-3.12.08-6.23.08-9.35v-22.09c0-3.12-.03-6.24-.08-9.35,0-1.13-.14-2-.4-2.62-.27-.62-.94-1.09-2.02-1.41l-1.77-.56v-1.69h22.58c6.29,0,11.14,1.2,14.55,3.59,3.41,2.39,5.12,5.74,5.12,10.04,0,2.37-.93,4.76-2.78,7.18s-4.69,4.27-8.51,5.56l10.97,21.37c.91,1.77,2.34,2.98,4.27,3.63l1.53.32v1.61h-14.27l-12.01-25.16h-5.81v10.32c0,3.06.03,5.94.08,8.63,0,1.08.17,1.94.52,2.58.35.65,1.04,1.1,2.06,1.37l1.93.56v1.69h-20.24ZM839.02,68.83h4.35c3.82,0,6.61-.97,8.39-2.9,1.77-1.93,2.66-4.89,2.66-8.87s-.85-6.92-2.54-8.83c-1.69-1.91-4.42-2.86-8.18-2.86h-4.6c0,2.1-.01,4.23-.04,6.41-.03,2.18-.04,4.62-.04,7.34v9.72Z"/>
      <path class="st1" d="M881.84,96.33v-1.69l1.61-.48c1.08-.38,1.79-.87,2.14-1.49.35-.62.52-1.49.52-2.62v-40.72c0-1.13-.17-2-.52-2.62-.35-.62-1.06-1.12-2.14-1.49l-1.61-.48v-1.69h20.16v1.69l-1.61.48c-1.02.38-1.72.88-2.1,1.49-.38.62-.56,1.49-.56,2.62v40.72c0,1.13.19,2,.56,2.62.38.62,1.07,1.12,2.1,1.49l1.61.48v1.69h-20.16Z"/>
      <path class="st1" d="M913.77,96.33v-1.69l1.61-.56c1.72-.54,2.58-1.88,2.58-4.03.05-3.06.08-6.2.08-9.39v-21.97c0-3.12-.03-6.24-.08-9.35,0-2.2-.83-3.57-2.5-4.11l-1.69-.48v-1.69h21.21c5.64,0,10.51,1.05,14.59,3.14,4.08,2.1,7.23,5.12,9.43,9.07s3.31,8.72,3.31,14.31-1.2,10.54-3.59,14.51c-2.39,3.98-5.75,7.01-10.08,9.11s-9.37,3.14-15.12,3.14h-19.75ZM929.65,93.99h4.11c3.82,0,6.92-.75,9.31-2.26,2.39-1.5,4.15-4.04,5.28-7.62,1.13-3.57,1.69-8.4,1.69-14.47s-.56-10.88-1.69-14.43-2.86-6.07-5.2-7.58c-2.34-1.5-5.36-2.26-9.07-2.26h-4.43c-.05,3.71-.08,7.46-.08,11.25v25.96c0,3.84.03,7.65.08,11.41Z"/>
    </g>
  </g>
  <path class="st1" d="M253.2,162.31c-5.45-.83-10.5-3.13-12.56-8.58-2.04-5.4-4.09-11.17-4.28-16.84-.62-18.52-.42-37.07-.48-55.61-.05-13.4,0-26.8,0-40.84-5.52,0-10.48-.19-15.41.13-1.3.08-3.03,1.5-3.64,2.75-6.75,13.83-13.33,27.74-19.93,41.63-7.48,15.74-14.94,31.48-22.61,47.64-2.25-4.53-4.32-8.61-6.32-12.72-12.24-25.27-24.44-50.56-36.74-75.8-.68-1.4-2.1-3.37-3.28-3.44-5.66-.36-11.36-.16-17.11-.16v81.67c-6.6-1.35-11.46-4.75-14.92-9.88-5.41-8.03-10.53-16.26-15.68-24.46-4.17-6.65-8.21-13.38-11.93-19.48,6.82-3.62,13.59-6.27,19.27-10.41,12.69-9.27,14.39-31.65,4.22-43.34C82.69,4.12,70.7.63,57.72.26,39.97-.24,22.2.13,4.44.14c-1.41,0-2.82.13-4.13.19C-.91,4.45,1.76,3.87,3.98,3.9c8.3.12,11.12,2.5,12.38,10.75.5,3.29.84,6.64.85,9.97.06,31.34.04,62.68.03,94.02v7.77h17.42v-58.28c2.91,0,5.47.23,7.96-.05,3.94-.46,6.26.91,8.34,4.47,8.12,13.9,16.33,27.76,25.13,41.23,4.77,7.31,11.42,13.1,20.59,14.35,4.49.61,9.13.11,14.48.11v29.84h7.74V60.34c3.38,4.49,5.75,9.23,8.07,14,13.11,26.92,26.19,53.85,39.38,80.73.64,1.31,2.12,2.69,3.45,3,.71.17,2.29-1.73,2.88-2.97,13.92-29.17,27.75-58.39,41.63-87.58.86-1.81,2-3.5,3.01-5.24.84,1.19.84,1.97.84,2.75.24,24.12.08,48.25.85,72.36.5,15.62,7.34,24.55,22.4,28,1.32.3,12.06,2.75,11.78-3.08ZM35.16,58.19c0-13.12,0-26.05,0-38.97,0-1.28.05-2.56-.1-3.83-.7-6-.66-5.69,5.63-6.91,9.96-1.93,19.13-.28,27.33,5.52,15.74,11.13,14.02,33.05-3.15,41.89-9.25,4.76-18.71,5.58-29.71,2.29Z"/>
</svg>