<?xml version="1.0" encoding="UTF-8"?>
<svg id="Capa_1" xmlns="http://www.w3.org/2000/svg" version="1.1" viewBox="0 0 204.52 134.21">
  <!-- Generator: Adobe Illustrator 30.5.1, SVG Export Plug-In . SVG Version: 2.1.4 Build 3)  -->
  <defs>
    <style>
      .st0 {
        fill: #fff;
      }
    </style>
  </defs>
  <path class="st0" d="M204.52,131.1c-4.4-.67-8.48-2.53-10.15-6.93-1.65-4.36-3.31-9.02-3.46-13.6-.5-14.96-.34-29.94-.39-44.92-.04-10.82,0-21.65,0-32.99-4.46,0-8.47-.16-12.45.11-1.05.07-2.45,1.21-2.94,2.22-5.45,11.17-10.76,22.41-16.1,33.63-6.04,12.71-12.07,25.43-18.26,38.48-1.82-3.66-3.49-6.95-5.1-10.28-9.88-20.41-19.74-40.84-29.68-61.23-.55-1.13-1.7-2.72-2.65-2.78-4.57-.29-9.18-.13-13.82-.13v65.97c-5.33-1.09-9.26-3.84-12.05-7.98-4.37-6.48-8.51-13.13-12.66-19.76-3.37-5.37-6.63-10.81-9.64-15.73,5.51-2.92,10.98-5.06,15.56-8.41,10.25-7.49,11.63-25.56,3.41-35.01C66.79,3.33,57.1.51,46.62.21,32.29-.19,17.93.11,3.58.12c-1.14,0-2.27.1-3.34.16-.98,3.32,1.18,2.85,2.97,2.88,6.7.1,8.98,2.02,10,8.69.41,2.66.68,5.37.68,8.05.05,25.32.03,50.63.03,75.95v6.28h14.07v-47.07c2.35,0,4.42.19,6.43-.04,3.18-.37,5.06.73,6.74,3.61,6.56,11.23,13.19,22.42,20.3,33.31,3.86,5.9,9.23,10.58,16.63,11.59,3.63.49,7.38.09,11.7.09v24.1h6.25V48.74c2.73,3.62,4.64,7.46,6.52,11.31,10.59,21.74,21.16,43.5,31.81,65.21.52,1.06,1.71,2.17,2.79,2.43.57.13,1.85-1.4,2.33-2.4,11.24-23.56,22.42-47.16,33.63-70.74.7-1.46,1.61-2.82,2.43-4.23.68.96.68,1.59.68,2.22.19,19.48.07,38.98.68,58.45.4,12.61,5.93,19.83,18.09,22.61,1.07.24,9.74,2.22,9.52-2.49ZM28.4,47c0-10.6,0-21.04,0-31.48,0-1.03.04-2.07-.08-3.09-.56-4.85-.53-4.6,4.54-5.58,8.04-1.56,15.45-.22,22.08,4.46,12.72,8.99,11.32,26.7-2.54,33.84-7.47,3.85-15.11,4.51-24,1.85Z"/>
</svg>